:FULLY-SPECIFIED
:FORCE-ALL-JOINTS-BE-3DOF
:DEGREES
1
root -2.95645 16.8291 -36.2757 3.79203 -0.409345 -2.77144
lfemur -18.1857 -3.85478 -7.37129
ltibia 37.6337 0 0
lfoot -17.8071 6.78532 0
ltoes -26.1578 0 0
rfemur -19.1521 0.15077 14.7318
rtibia 40.3652 0 0
rfoot -23.1652 -2.86285 0
rtoes -21.0274 0 0
lowerback 7.02591 2.55716 -1.97249
upperback -3.14202 3.31583 1.27229
thorax -7.43554 1.75645 1.99661
lowerneck -4.68188 -4.04088 -6.84108
upperneck 4.69893 -5.30737 6.47589
head 2.76948 -2.5844 3.14763
lclavicle 1.91563e-15 -9.24349e-15 0
lhumerus -27.0689 -5.33108 89.6453
lradius 25.7364 0 0
lwrist -30.6252 0 0
lhand -28.8405 29.9909 0
lfingers 7.12502 0 0
lthumb -2.19771 59.9594 0
rclavicle 1.91563e-15 -9.24349e-15 0
rhumerus -32.8355 4.71181 -81.727
rradius 32.9783 0 0
rwrist 3.84135 0 0
rhand -24.1523 -25.0894 0
rfingers 7.12502 0 0
rthumb 2.33029 -55.0564 0
2
root -2.95651 16.8289 -36.2759 3.78704 -0.410387 -2.77063
lfemur -18.183 -3.84236 -7.37364
ltibia 37.6375 -0 0
lfoot -17.8091 6.77938 5.87725e-05
ltoes -26.1343 0 0
rfemur -19.1512 0.143736 14.731
rtibia 40.3712 -0 0
rfoot -23.1654 -2.85367 -1.13937e-05
rtoes -21.0014 0 0
lowerback 7.03424 2.5567 -1.97259
upperback -3.1408 3.31508 1.27241
thorax -7.43904 1.75609 1.99663
lowerneck -4.68051 -4.0403 -6.8409
upperneck 4.69808 -5.30665 6.4759
head 2.76888 -2.58406 3.14765
lclavicle 1.92365e-15 -9.24334e-15 -6.07307e-36
lhumerus -27.0678 -5.33063 89.6466
lradius 25.7363 -0 0
lwrist -30.6239 0 0
lhand -28.8407 29.9903 5.07497e-07
lfingers 7.12502 -0 0
lthumb -2.19787 59.9588 4.91573e-07
rclavicle 1.92365e-15 -9.24334e-15 -6.07307e-36
rhumerus -32.8344 4.70843 -81.7247
rradius 32.9737 -0 0
rwrist 3.84006 0 0
rhand -24.1489 -25.092 -4.41913e-05
rfingers 7.12502 -0 0
rthumb 2.33355 -55.059 -4.18723e-05
3
root -2.95668 16.8281 -36.2767 3.77241 -0.413445 -2.76825
lfemur -18.1749 -3.80594 -7.38052
ltibia 37.6486 -0 0
lfoot -17.8149 6.76197 0.000230015
ltoes -26.0652 0 0
rfemur -19.1487 0.1231 14.7286
rtibia 40.3887 -0 0
rfoot -23.1662 -2.82674 -4.45908e-05
rtoes -20.9252 0 0
lowerback 7.05869 2.55537 -1.97287
upperback -3.13724 3.31288 1.27278
thorax -7.4493 1.75502 1.9967
lowerneck -4.6765 -4.03858 -6.84038
upperneck 4.69561 -5.30453 6.47593
head 2.76711 -2.58306 3.14769
lclavicle 1.94716e-15 -9.24289e-15 -2.37675e-35
lhumerus -27.0647 -5.32932 89.6504
lradius 25.7359 -0 0
lwrist -30.6203 0 0
lhand -28.8412 29.9885 1.98613e-06
lfingers 7.12502 -0 0
lthumb -2.19836 59.957 1.92382e-06
rclavicle 1.94716e-15 -9.24289e-15 -2.37675e-35
rhumerus -32.8312 4.69853 -81.7181
rradius 32.9601 -0 0
rwrist 3.83627 0 0
rhand -24.139 -25.0998 -0.000172948
rfingers 7.12502 -0 0
rthumb 2.3431 -55.0666 -0.000163872
4
root -2.95696 16.827 -36.2779 3.74862 -0.418414 -2.76438
lfemur -18.1619 -3.74674 -7.39169
ltibia 37.6666 -0 0
lfoot -17.8245 6.73367 0.000504554
ltoes -25.9529 0 0
rfemur -19.1445 0.0895583 14.7248
rtibia 40.4171 -0 0
rfoot -23.1674 -2.78297 -9.78132e-05
rtoes -20.8012 0 0
lowerback 7.09842 2.5532 -1.97333
upperback -3.13144 3.3093 1.27336
thorax -7.46597 1.75329 1.9968
lowerneck -4.66997 -4.0358 -6.83954
upperneck 4.69158 -5.30108 6.47599
head 2.76424 -2.58143 3.14777
lclavicle 1.98539e-15 -9.24216e-15 -5.21348e-35
lhumerus -27.0596 -5.32718 89.6567
lradius 25.7352 -0 0
lwrist -30.6143 0 0
lhand -28.842 29.9857 4.35666e-06
lfingers 7.12502 -0 0
lthumb -2.19914 59.9541 4.21996e-06
rclavicle 1.98539e-15 -9.24216e-15 -5.21348e-35
rhumerus -32.826 4.68242 -81.7074
rradius 32.938 -0 0
rwrist 3.83011 0 0
rhand -24.123 -25.1124 -0.00037937
rfingers 7.12502 -0 0
rthumb 2.35862 -55.079 -0.000359462
5
root -2.95733 16.8254 -36.2795 3.71617 -0.425188 -2.75911
lfemur -18.1441 -3.66598 -7.40691
ltibia 37.6912 -0 0
lfoot -17.8374 6.69506 0.000871442
ltoes -25.7997 0 0
rfemur -19.1388 0.0438085 14.7195
rtibia 40.4559 -0 0
rfoot -23.169 -2.72327 -0.000168938
rtoes -20.6322 0 0
lowerback 7.15261 2.55024 -1.97396
upperback -3.12353 3.30443 1.27416
thorax -7.48871 1.75093 1.99694
lowerneck -4.66107 -4.03201 -6.83838
upperneck 4.68608 -5.29638 6.47606
head 2.76032 -2.57921 3.14788
lclavicle 2.03753e-15 -9.24117e-15 -9.00434e-35
lhumerus -27.0527 -5.32426 89.6652
lradius 25.7344 -0 0
lwrist -30.6061 0 0
lhand -28.8431 29.9817 7.52449e-06
lfingers 7.12502 -0 0
lthumb -2.20021 59.9502 7.2884e-06
rclavicle 2.03753e-15 -9.24117e-15 -9.00434e-35
rhumerus -32.819 4.66046 -81.6927
rradius 32.9079 -0 0
rwrist 3.8217 0 0
rhand -24.101 -25.1296 -0.000655224
rfingers 7.12502 -0 0
rthumb 2.37979 -55.0958 -0.00062084
6
root -2.95781 16.8234 -36.2815 3.67556 -0.433663 -2.75249
lfemur -18.1218 -3.5649 -7.42592
ltibia 37.7221 -0 0
lfoot -17.8537 6.64674 0.00131832
ltoes -25.6081 0 0
rfemur -19.1317 -0.0134519 14.7129
rtibia 40.5044 -0 0
rfoot -23.171 -2.64855 -0.000255571
rtoes -20.4207 0 0
lowerback 7.22044 2.54653 -1.97475
upperback -3.11363 3.29832 1.27517
thorax -7.51718 1.74797 1.99713
lowerneck -4.64992 -4.02726 -6.83693
upperneck 4.6792 -5.2905 6.47615
head 2.75542 -2.57644 3.14801
lclavicle 2.10278e-15 -9.23993e-15 -1.36216e-34
lhumerus -27.044 -5.32061 89.6759
lradius 25.7333 -0 0
lwrist -30.5958 0 0
lhand -28.8445 29.9768 1.13829e-05
lfingers 7.12502 -0 0
lthumb -2.20154 59.9453 1.10258e-05
rclavicle 2.10278e-15 -9.23993e-15 -1.36216e-34
rhumerus -32.8102 4.63296 -81.6744
rradius 32.8702 -0 0
rwrist 3.81119 0 0
rhand -24.0736 -25.1511 -0.000991218
rfingers 7.12502 -0 0
rthumb 2.40629 -55.1169 -0.000939202
7
root -2.95837 16.821 -36.2839 3.62728 -0.443732 -2.74463
lfemur -18.0955 -3.44473 -7.44847
ltibia 37.7587 -0 0
lfoot -17.873 6.5893 0.00183178
ltoes -25.3802 0 0
rfemur -19.1232 -0.0815251 14.705
rtibia 40.5621 -0 0
rfoot -23.1735 -2.55972 -0.000355111
rtoes -20.1692 0 0
lowerback 7.30108 2.54213 -1.9757
upperback -3.10186 3.29106 1.27636
thorax -7.55102 1.74446 1.99734
lowerneck -4.63668 -4.02161 -6.83521
upperneck 4.67102 -5.28351 6.47625
head 2.74959 -2.57314 3.14816
lclavicle 2.18035e-15 -9.23845e-15 -1.89266e-34
lhumerus -27.0336 -5.31628 89.6885
lradius 25.732 -0 0
lwrist -30.5837 0 0
lhand -28.8461 29.971 1.5816e-05
lfingers 7.12502 -0 0
lthumb -2.20313 59.9395 1.53198e-05
rclavicle 2.18035e-15 -9.23845e-15 -1.89266e-34
rhumerus -32.7997 4.60027 -81.6525
rradius 32.8254 -0 0
rwrist 3.79868 0 0
rhand -24.041 -25.1766 -0.00137726
rfingers 7.12502 -0 0
rthumb 2.4378 -55.142 -0.00130499
8
root -2.95901 16.8183 -36.2867 3.57182 -0.455289 -2.73558
lfemur -18.0652 -3.30668 -7.47429
ltibia 37.8007 -0 0
lfoot -17.8952 6.52332 0.00239765
ltoes -25.1185 0 0
rfemur -19.1135 -0.159713 14.696
rtibia 40.6284 -0 0
rfoot -23.1762 -2.45769 -0.000464812
rtoes -19.8804 0 0
lowerback 7.39371 2.53707 -1.97679
upperback -3.08834 3.28273 1.27772
thorax -7.58989 1.74042 1.9976
lowerneck -4.62146 -4.01513 -6.83323
upperneck 4.66163 -5.27547 6.47637
head 2.7429 -2.56934 3.14834
lclavicle 2.26946e-15 -9.23675e-15 -2.47729e-34
lhumerus -27.0218 -5.3113 89.7031
lradius 25.7305 -0 0
lwrist -30.5697 0 0
lhand -28.848 29.9643 2.07016e-05
lfingers 7.12502 -0 0
lthumb -2.20495 59.9328 2.0052e-05
rclavicle 2.26946e-15 -9.23675e-15 -2.47729e-34
rhumerus -32.7877 4.56272 -81.6275
rradius 32.774 -0 0
rwrist 3.78432 0 0
rhand -24.0035 -25.206 -0.00180271
rfingers 7.12502 -0 0
rthumb 2.47398 -55.1708 -0.00170811
9
root -2.95973 16.8152 -36.2898 3.50968 -0.468228 -2.72543
lfemur -18.0314 -3.15199 -7.50314
ltibia 37.8479 -0 0
lfoot -17.92 6.44939 0.00300134
ltoes -24.8253 0 0
rfemur -19.1026 -0.247318 14.6859
rtibia 40.7027 -0 0
rfoot -23.1794 -2.34337 -0.000581848
rtoes -19.5567 0 0
lowerback 7.49749 2.53141 -1.97803
upperback -3.0732 3.27339 1.27925
thorax -7.63344 1.7359 1.99788
lowerneck -4.60442 -4.00786 -6.83101
upperneck 4.65111 -5.26647 6.47651
head 2.7354 -2.5651 3.14854
lclavicle 2.36929e-15 -9.23485e-15 -3.10099e-34
lhumerus -27.0085 -5.30573 89.7194
lradius 25.7289 -0 0
lwrist -30.554 0 0
lhand -28.8501 29.9568 2.59135e-05
lfingers 7.12502 -0 0
lthumb -2.207 59.9252 2.51005e-05
rclavicle 2.36929e-15 -9.23485e-15 -3.10099e-34
rhumerus -32.7742 4.52063 -81.5994
rradius 32.7163 -0 0
rwrist 3.76823 0 0
rhand -23.9615 -25.2389 -0.00225659
rfingers 7.12502 -0 0
rthumb 2.51453 -55.2031 -0.00213816
